<svg xmlns="http://www.w3.org/2000/svg" viewBox="-5466 -3271 16 16">
  <defs>
    <style>
      .cls-1 {
        opacity: 0.5;
      }

      .cls-2 {
        fill: none;
      }

      .cls-3 {
        fill: #fff;
      }
    </style>
  </defs>
  <g id="ic_opacity_white_24px" class="cls-1" transform="translate(-5466 -3271)">
    <path id="Path_3857" data-name="Path 3857" class="cls-2" d="M16,0H0V16H16Zm0,0H0V16H16ZM0,16H16V0H0Z"/>
    <path id="Subtraction_1" data-name="Subtraction 1" class="cls-3" d="M5471.334,3283.873a5.309,5.309,0,0,1-3.774-1.566,5.336,5.336,0,0,1,0-7.54l3.774-3.767,3.773,3.767a5.336,5.336,0,0,1-3.773,9.106Zm0-11.334-2.871,2.865a4.06,4.06,0,0,0,0,5.739,4.056,4.056,0,0,0,5.744,0,4.06,4.06,0,0,0,0-5.739Z" transform="translate(-5463.333 -3269.433)"/>
  </g>
</svg>
