<svg xmlns="http://www.w3.org/2000/svg" viewBox="5205.833 -5827.167 68.333 68.333">
  <defs>
    <style>
      .cls-1 {
        fill: #808889;
      }
    </style>
  </defs>
  <path id="Path_3900" data-name="Path 3900" class="cls-1" d="M36.167,2A34.167,34.167,0,1,0,70.333,36.167,34.179,34.179,0,0,0,36.167,2Zm0,10.25A10.25,10.25,0,1,1,25.917,22.5,10.236,10.236,0,0,1,36.167,12.25Zm0,48.517a24.6,24.6,0,0,1-20.5-11c.1-6.8,13.667-10.523,20.5-10.523,6.8,0,20.4,3.724,20.5,10.523A24.6,24.6,0,0,1,36.167,60.767Z" transform="translate(5203.833 -5829.167)"/>
</svg>
