<svg xmlns="http://www.w3.org/2000/svg" viewBox="-13977 -2663 21.352 26.063">
  <defs>
    <style>
      .cls-1 {
        opacity: 0.5;
      }

      .cls-2 {
        fill: #fff;
      }
    </style>
  </defs>
  <g id="Group_5346" data-name="Group 5346" class="cls-1" transform="translate(-13977 -2663)">
    <path id="Subtraction_2" data-name="Subtraction 2" class="cls-2" d="M8.353,6.532A8.514,8.514,0,0,1,3.01,4.672,8.655,8.655,0,0,1,0,0,9.316,9.316,0,0,0,3.368,3.764,9.257,9.257,0,0,0,8.353,5.213a9.266,9.266,0,0,0,4.985-1.449A9.315,9.315,0,0,0,16.7,0a8.646,8.646,0,0,1-3.011,4.671A8.507,8.507,0,0,1,8.353,6.532Z" transform="translate(2.323 19.531)"/>
    <circle id="Ellipse_4" data-name="Ellipse 4" class="cls-2" cx="10.205" cy="10.205" r="10.205" transform="translate(0.471 2.7)"/>
    <circle id="Ellipse_5" data-name="Ellipse 5" class="cls-2" cx="10.676" cy="10.676" r="10.676"/>
  </g>
</svg>
