<svg xmlns="http://www.w3.org/2000/svg" viewBox="-3592 -5494 22 22"><defs><style>.a{fill:#fff;}</style></defs><g transform="translate(-3592 -5494)"><path class="a" d="M0,60.093H9.993V50.1H0Zm1.989-8H7.98V58.08H1.989V52.089Zm0,0" transform="translate(0 -38.093)"/><rect class="a" width="1.989" height="1.989" transform="translate(4.002 15.985)"/><rect class="a" width="1.989" height="1.989" transform="translate(15.985 19.987)"/><rect class="a" width="1.989" height="1.989" transform="translate(19.987 19.987)"/><path class="a" d="M58.08,52.089H56.091V50.1H50.1v9.993h1.989V54.1h1.989v1.989h5.991V50.1H58.08v1.989Zm0,0" transform="translate(-38.093 -38.093)"/><path class="a" d="M0,9.993H9.993V0H0Zm1.989-8H7.98V7.98H1.989V1.989Zm0,0"/><rect class="a" width="1.989" height="1.989" transform="translate(4.002 4.002)"/><path class="a" d="M50.1,0V9.993h9.993V0Zm7.98,8H52.089V2.013H58.08Zm0,0" transform="translate(-38.093)"/><rect class="a" width="1.989" height="1.989" transform="translate(15.985 4.002)"/></g></svg>