<svg xmlns="http://www.w3.org/2000/svg" viewBox="-14271 -2325 24 24">
  <defs>
    <style>
      .cls-1 {
        opacity: 0.75;
      }

      .cls-2 {
        fill: none;
      }

      .cls-3 {
        fill: #fff;
      }
    </style>
  </defs>
  <g id="ic_account_balance_wallet_white_24px" class="cls-1" transform="translate(-14271 -2325)">
    <path id="Path_3912" data-name="Path 3912" class="cls-2" d="M0,0H24V24H0Z"/>
    <path id="Path_3913" data-name="Path 3913" class="cls-3" d="M21,18v1a2.006,2.006,0,0,1-2,2H5a2,2,0,0,1-2-2V5A2,2,0,0,1,5,3H19a2.006,2.006,0,0,1,2,2V6H12a2,2,0,0,0-2,2v8a2,2,0,0,0,2,2Zm-9-2H22V8H12Zm4-2.5A1.5,1.5,0,1,1,17.5,12,1.5,1.5,0,0,1,16,13.5Z"/>
  </g>
</svg>
