<svg xmlns="http://www.w3.org/2000/svg" viewBox="1800.115 -5876.944 24.497 27.644">
  <defs>
    <style>
      .cls-1 {
        opacity: 0.5;
      }

      .cls-2 {
        fill: #fff;
      }
    </style>
  </defs>
  <g id="Group_5242" data-name="Group 5242" class="cls-1" transform="translate(1800.215 -5876.944)">
    <path id="Path_3896" data-name="Path 3896" class="cls-2" d="M22.841,9.88h-.677V6.6a.434.434,0,0,0-.135-.338L16.716.169h0l-.1-.1a.033.033,0,0,1-.034-.034A.124.124,0,0,0,16.48,0H3.216A1.09,1.09,0,0,0,2.133,1.083v8.8H1.456A1.552,1.552,0,0,0-.1,11.437v8.053a1.552,1.552,0,0,0,1.556,1.556h.677v5.515a1.069,1.069,0,0,0,1.083,1.083H21.081a1.069,1.069,0,0,0,1.083-1.083V21.012h.677A1.574,1.574,0,0,0,24.4,19.456V11.437A1.552,1.552,0,0,0,22.841,9.88ZM3.216,1.083H15.769V6.632a.534.534,0,0,0,.541.541h4.771V9.88H3.216ZM17.258,15.835c-1.083-.372-1.759-.947-1.759-1.895,0-1.083.914-1.929,2.436-1.929a3.419,3.419,0,0,1,1.624.338l-.338,1.184a2.947,2.947,0,0,0-1.353-.3c-.643,0-.947.271-.947.609,0,.406.372.575,1.184.914,1.117.406,1.658,1.015,1.658,1.895,0,1.083-.812,2-2.572,2a4.789,4.789,0,0,1-1.827-.372l.3-1.184a3.667,3.667,0,0,0,1.59.406c.677,0,1.015-.271,1.015-.711.034-.44-.271-.677-1.015-.947Zm-2.47,1.489v1.218H10.8V12.113H12.25V17.29h2.538ZM6.16,18.542H4.5l1.861-3.248L4.569,12.113H6.227L6.8,13.3a9.243,9.243,0,0,1,.474,1.049H7.31A7.519,7.519,0,0,1,7.75,13.3l.541-1.184H9.949L8.156,15.226l1.895,3.282H8.393l-.575-1.15a7.63,7.63,0,0,1-.609-1.117H7.175c-.135.338-.3.677-.508,1.117Zm14.922,7.681H3.216V21.012H21.081Zm.034-7.681" transform="translate(0)"/>
  </g>
</svg>
